<svg xmlns="http://www.w3.org/2000/svg" viewBox="0 0 1200 800">
  <defs>
    <linearGradient id="sunset" x1="0" y1="0" x2="1" y2="1">
      <stop offset="0%" stop-color="#ff6b6b"/>
      <stop offset="50%" stop-color="#f4a261"/>
      <stop offset="100%" stop-color="#2a9d8f"/>
    </linearGradient>
    <radialGradient id="glow" cx="30%" cy="20%" r="40%">
      <stop offset="0%" stop-color="#fff8e7" stop-opacity="0.9"/>
      <stop offset="100%" stop-color="#fff8e7" stop-opacity="0"/>
    </radialGradient>
  </defs>
  <rect width="1200" height="800" fill="url(#sunset)"/>
  <circle cx="320" cy="190" r="220" fill="url(#glow)"/>
  <path d="M0 520 C200 460 360 540 520 500 C720 444 870 530 1200 460 V800 H0 Z" fill="#0b3048" opacity="0.9"/>
  <path d="M0 560 C210 520 380 600 560 560 C780 502 920 590 1200 520 V800 H0 Z" fill="#123d58" opacity="0.85"/>
  <path d="M0 610 C230 570 400 640 600 610 C820 565 960 640 1200 580 V800 H0 Z" fill="#1a4965" opacity="0.8"/>
  <circle cx="980" cy="200" r="90" fill="#ffe066" opacity="0.8"/>
  <path d="M1020 220 q-20 -50 -90 -60" stroke="#ffd166" stroke-width="16" fill="none" stroke-linecap="round" opacity="0.8"/>
</svg>
